<?xml version="1.0" standalone="no"?><!DOCTYPE svg PUBLIC "-//W3C//DTD SVG 1.1//EN" "http://www.w3.org/Graphics/SVG/1.1/DTD/svg11.dtd"><svg t="1624330833604" class="icon" viewBox="0 0 1024 1024" version="1.1" xmlns="http://www.w3.org/2000/svg" p-id="835" xmlns:xlink="http://www.w3.org/1999/xlink" width="200" height="200"><defs><style type="text/css"></style></defs><path d="M974.88 354.22l-262.54-63.9-150-235.79a56.19 56.19 0 0 0-100.78 0l-149.9 235.79-262.54 63.9C3 360.91-15.38 417.56 18 450.07l183.74 223.52L175.53 935c-6.23 36.32 22.63 65.82 55.38 65.82a56 56 0 0 0 26.16-6.58L512 882.67l254.93 111.55a56 56 0 0 0 26.16 6.58c32.74 0 61.61-29.5 55.38-65.82l-26.21-261.39L1006 450.07c33.38-32.51 15-89.16-31.12-95.85z m-463.65 338.3c-81.86 0-148.46-66.6-148.46-148.46a35 35 0 0 1 70 0 78.47 78.47 0 0 0 156.93 0 35 35 0 0 1 70 0c0 81.86-66.6 148.46-148.47 148.46z" fill="#8a8a8a" p-id="836"></path></svg>